# xmcd
#
# Track frame offsets:
# 150
# 12288
# 26738
# 37175
# 49438
# 59363
# 78775
# 95475
# 110738
# 122800
# 133138
# 149225
# 159175
# 173963
# 183813
# 197550
# 208188
# 219988
# 233975
# 249750
#
# Disc length: 3524 seconds
#
#
# Revision: 0
# Processed by: cddbd v1.5.1PL0 Copyright (c) Steve Scherf et al.
# Submitted via: FreeRIP 2.942 
#
DISCID=240dc214
DTITLE=Various Artist - Christmas Magic - CD2
DYEAR=1993
DGENRE=Christmas
TTITLE0=Doug Stone - Santa's Flying A 747 Tonight
TTITLE1=Forester Sisters - An Old Christmas Card
TTITLE2=Riders In The Sky - Rudolph, The Red-Nosed Reindeer
TTITLE3=Highway 101 - Blue Christmas
TTITLE4=George Strait - Santa Claus Is Commin' To Town
TTITLE5=Steve Wariner - Tennessee Christmas
TTITLE6=EmmyLou Harris - O Little Town Of Bethlehem
TTITLE7=Lee Greenwood - Let It Snow! Let It Snow! Let It Snow!
TTITLE8=Merle Haggard - If We Make It Through December
TTITLE9=Tanya Tucker - Away In A Manger
TTITLE10=Alabama - Christmas In Dixie
TTITLE11=Boots Randolph - Sleigh Ride
TTITLE12=The Judds - Silent Night
TTITLE13=Willie Nelson - Jingle Bells
TTITLE14=Mickey Gilley - I'm Spending Christmas With You
TTITLE15=Janie Frickie - What Child Is This?
TTITLE16=Michael Martin Murphey - Two Step 'Round The Christmas Tree
TTITLE17=Ricky Van Shelton - I'll Be Home For Christmas
TTITLE18=Eddie Rabbitt - Have Yourself A Merry Little Christmas
TTITLE19=Tim Mensy - Go Tell It To The Mountain
EXTD=
EXTT0=
EXTT1=
EXTT2=
EXTT3=
EXTT4=
EXTT5=
EXTT6=
EXTT7=
EXTT8=
EXTT9=
EXTT10=
EXTT11=
EXTT12=
EXTT13=
EXTT14=
EXTT15=
EXTT16=
EXTT17=
EXTT18=
EXTT19=
PLAYORDER=
